<?xml version="1.0" standalone="no"?>
<!DOCTYPE svg PUBLIC "-//W3C//DTD SVG 20010904//EN"
 "http://www.w3.org/TR/2001/REC-SVG-20010904/DTD/svg10.dtd">
<svg version="1.0" xmlns="http://www.w3.org/2000/svg"
 width="500.000000pt" height="500.000000pt" viewBox="0 0 500.000000 500.000000"
 preserveAspectRatio="xMidYMid meet">

<g transform="translate(0.000000,500.000000) scale(0.100000,-0.100000)"
fill="#000000" stroke="none">
<path d="M1892 4988 c-6 -6 -12 -18 -12 -26 0 -7 -27 -40 -59 -73 -141 -141
-205 -296 -179 -433 3 -19 -1 -23 -73 -56 -78 -35 -142 -105 -170 -186 -22
-62 -24 -85 -23 -224 1 -132 5 -169 27 -251 14 -53 37 -119 51 -147 31 -60 33
-116 10 -206 -11 -42 -14 -80 -10 -123 6 -57 5 -61 -13 -56 -32 8 -108 -32
-131 -69 -36 -60 -16 -188 40 -251 27 -30 33 -32 92 -31 38 0 76 7 95 17 18
10 34 17 38 17 3 0 5 -37 5 -82 l0 -83 -71 -77 c-39 -43 -75 -78 -81 -78 -6 0
-35 23 -66 51 -145 132 -311 212 -442 212 -119 0 -174 -51 -204 -185 -4 -16
-10 -28 -15 -28 -5 0 -25 22 -45 49 -69 93 -212 198 -311 227 -64 19 -264 26
-317 11 -26 -7 -28 -11 -28 -58 l0 -51 43 9 c23 4 94 8 157 8 107 0 119 -2
170 -28 164 -85 286 -261 411 -596 61 -162 84 -197 123 -185 37 11 41 21 28
70 -22 81 -82 236 -139 356 -31 64 -53 123 -49 130 22 45 109 147 142 165 101
58 230 5 422 -174 l74 -68 -21 -45 c-11 -25 -21 -55 -21 -68 0 -13 -6 -35 -14
-50 -19 -37 -46 -170 -46 -227 0 -32 5 -47 15 -52 30 -11 52 28 85 145 41 142
74 227 126 318 l39 69 3 -52 c2 -29 -2 -79 -8 -110 -18 -90 -25 -388 -11 -484
29 -203 95 -391 194 -558 35 -58 59 -111 63 -139 21 -142 -122 -304 -386 -437
-101 -51 -146 -70 -385 -166 -82 -33 -186 -80 -230 -103 -143 -76 -640 -410
-695 -468 l-51 -53 75 -3 74 -3 64 49 c68 51 297 196 367 232 l42 21 21 -47
c11 -26 30 -94 42 -151 l21 -103 52 0 c29 0 53 3 53 8 0 4 -11 48 -24 98 -27
97 -67 197 -85 208 -27 17 -9 45 52 84 63 40 131 69 407 177 80 31 213 89 295
129 l150 72 65 -53 c106 -88 221 -153 272 -153 l43 0 65 -126 c82 -158 171
-306 232 -384 l48 -60 208 0 209 0 50 107 c58 123 77 180 93 273 11 61 28 131
51 207 11 35 12 35 126 69 236 69 450 214 633 429 40 47 81 90 91 95 14 8 36
-7 121 -86 141 -131 318 -266 410 -314 42 -22 127 -60 190 -84 119 -46 419
-146 437 -146 7 0 11 22 11 54 l0 55 -117 36 c-65 20 -185 59 -268 86 -268 90
-323 126 -647 426 -158 146 -173 163 -272 312 -177 264 -199 329 -200 586 -1
160 0 170 19 180 79 40 125 108 125 184 0 24 6 66 14 94 8 29 17 118 19 200 6
146 6 148 46 235 95 207 96 363 1 482 -18 23 -30 43 -27 46 2 3 26 -1 53 -8
53 -14 129 -15 822 -10 l432 2 0 62 0 61 -387 -6 c-214 -4 -509 -10 -656 -13
l-268 -7 -36 -29 c-20 -15 -48 -28 -64 -28 -31 0 -29 -7 -44 245 -11 171 -67
455 -99 495 -7 8 -20 42 -30 75 -10 33 -46 119 -81 191 -74 152 -147 250 -260
344 -42 35 -80 71 -85 79 -8 14 -60 16 -457 16 -394 0 -455 -2 -509 -18 -78
-22 -96 -22 -92 0 4 21 -23 28 -40 11z m896 -37 c87 -8 109 -13 145 -36 70
-46 209 -195 244 -261 44 -82 175 -396 168 -402 -10 -10 -43 29 -49 58 -7 39
-56 63 -188 95 -139 33 -247 45 -405 45 l-132 0 18 41 c21 46 18 69 -10 95
-18 16 -22 16 -79 -9 l-60 -26 0 113 c0 86 5 125 20 169 11 31 20 69 20 85 0
16 3 32 7 35 9 9 176 8 301 -2z m-410 -56 c4 -45 -30 -93 -72 -100 -70 -14
-70 15 0 45 46 20 58 40 25 40 -24 0 -35 15 -27 36 4 10 16 14 38 12 29 -3 33
-7 36 -33z m-168 14 c0 -6 -15 -52 -34 -103 -19 -50 -39 -117 -46 -148 -6 -32
-16 -58 -22 -58 -6 0 -26 14 -45 31 -24 21 -43 29 -61 27 -24 -3 -27 -7 -26
-39 1 -19 13 -62 28 -94 19 -42 23 -61 15 -66 -10 -6 -259 -49 -284 -49 -4 0
-6 39 -3 88 3 74 9 96 36 148 72 133 152 195 317 246 100 30 125 33 125 17z
m74 -198 c7 -11 -22 -23 -35 -15 -5 3 -9 9 -9 15 0 12 37 12 44 0z m46 -100
c0 -6 -4 -13 -10 -16 -5 -3 -10 1 -10 9 0 9 5 16 10 16 6 0 10 -4 10 -9z m-70
-42 c0 -4 -7 -10 -15 -13 -19 -7 -30 17 -20 42 6 16 7 16 21 -2 8 -11 14 -23
14 -27z m-142 -77 c4 -25 -13 -30 -22 -6 -9 25 -7 36 7 32 6 -3 13 -14 15 -26z
m147 -12 c3 -5 -1 -10 -9 -10 -8 0 -18 5 -21 10 -3 6 1 10 9 10 8 0 18 -4 21
-10z m235 -14 c0 -20 -27 -39 -45 -32 -8 3 -15 12 -15 20 0 13 9 17 53 25 4 0
7 -5 7 -13z m-350 -81 c0 -8 -4 -15 -10 -15 -5 0 -10 7 -10 15 0 8 5 15 10 15
6 0 10 -7 10 -15z m77 -21 c-9 -9 -28 6 -21 18 4 6 10 6 17 -1 6 -6 8 -13 4
-17z m95 4 c-12 -12 -35 -1 -27 12 3 5 13 6 21 3 10 -4 12 -9 6 -15z m-267 -8
c-28 -12 -47 -12 -40 0 3 6 18 10 33 9 24 0 25 -1 7 -9z m850 -9 c3 -5 -4 -13
-16 -16 -26 -9 -72 2 -64 15 8 13 72 13 80 1z m-1135 -31 c-14 -4 -41 -8 -60
-8 l-35 0 30 8 c17 4 44 8 60 8 29 0 29 0 5 -8z m1435 -9 c3 -5 1 -12 -5 -16
-13 -8 -50 3 -50 16 0 12 47 12 55 0z m-1615 -46 c0 -32 44 -39 168 -26 64 7
146 18 182 26 101 22 354 18 937 -15 211 -12 264 -23 309 -62 26 -23 40 -29
59 -24 14 4 25 11 25 16 0 14 63 12 82 -2 14 -11 48 -104 48 -131 0 -16 -107
1 -184 29 -124 45 -165 53 -325 64 -86 6 -248 18 -361 27 -248 20 -745 22
-865 3 -44 -6 -102 -20 -129 -31 -28 -10 -52 -16 -55 -14 -2 3 6 28 19 56 36
76 90 127 90 84z m1148 -230 c188 -19 352 -39 362 -45 16 -9 20 -21 20 -65 0
-30 -4 -55 -8 -55 -5 0 -21 27 -37 61 -24 50 -33 59 -50 55 -11 -3 -87 -12
-170 -21 -199 -20 -246 -36 -339 -113 -81 -67 -105 -121 -70 -157 16 -16 35
-15 79 1 13 6 11 -4 -10 -47 -41 -80 -65 -157 -65 -208 0 -42 4 -49 58 -101
84 -82 137 -105 242 -105 47 0 118 4 157 9 64 7 74 6 79 -9 8 -19 -17 -47 -63
-73 -17 -9 -51 -28 -75 -41 -63 -35 -156 -39 -227 -9 -47 20 -56 28 -70 67
-19 53 -64 91 -88 75 -23 -14 -46 -168 -38 -254 l6 -65 -48 -25 c-55 -29 -67
-59 -33 -83 17 -12 29 -13 52 -5 78 27 210 -20 251 -90 34 -58 -3 -162 -59
-162 -31 0 -30 5 6 47 17 18 30 43 30 53 0 38 -77 90 -133 90 -33 0 -133 -62
-192 -119 -83 -80 -118 -89 -166 -42 -27 27 -29 35 -29 100 0 39 7 91 16 117
15 46 29 115 60 314 25 159 2 272 -67 322 -34 25 -52 55 -79 132 -10 28 -21
59 -25 69 -6 15 -1 17 35 17 l43 0 -5 43 c-3 23 -16 69 -29 102 l-24 60 -94
47 c-114 57 -197 77 -353 87 -65 4 -121 11 -125 15 -15 15 32 36 81 37 28 0
74 5 101 9 28 5 208 7 400 5 309 -4 391 -9 693 -40z m-1118 -261 c0 -3 -19
-37 -42 -76 -46 -78 -49 -78 -88 6 -20 43 -17 62 8 69 26 7 122 8 122 1z
m1294 -31 c55 -10 113 -13 152 -10 61 6 64 5 64 -16 -1 -94 -22 -373 -30 -381
-12 -12 -45 45 -71 124 -59 179 -123 248 -273 292 l-61 17 65 -5 c36 -3 105
-13 154 -21z m-1057 -55 c68 -28 88 -54 115 -144 42 -146 38 -185 -26 -216
l-43 -21 -64 26 c-35 13 -88 30 -117 37 -62 14 -65 21 -66 149 0 70 4 94 22
128 41 79 69 85 179 41z m941 -54 c63 -31 102 -91 128 -197 21 -86 15 -94 -82
-109 -96 -15 -172 -5 -249 31 -54 25 -65 34 -65 54 0 39 77 182 116 216 44 39
82 40 152 5z m851 -213 c27 -27 41 -83 41 -165 0 -62 -5 -81 -56 -193 -60
-135 -59 -125 -84 -453 -6 -75 -15 -151 -20 -169 -11 -40 -47 -81 -69 -81 -9
0 -39 25 -67 57 -61 69 -80 66 -58 -10 9 -28 27 -72 41 -96 18 -30 25 -58 25
-93 0 -62 -6 -68 -33 -34 -19 24 -24 26 -36 13 -8 -7 -34 -83 -59 -168 -54
-186 -92 -270 -189 -414 -83 -123 -112 -155 -203 -223 -100 -74 -115 -82 -153
-82 -42 0 -175 63 -294 139 -106 68 -122 72 -152 35 -126 -153 -159 -174 -271
-174 -87 0 -127 15 -170 64 -62 71 -139 250 -177 410 -30 130 -37 189 -22 182
142 -61 194 -81 257 -97 146 -39 151 -42 188 -113 60 -116 171 -196 272 -196
53 0 127 30 173 70 53 47 72 94 64 155 -4 28 -2 46 6 52 7 5 49 19 95 31 157
41 257 98 378 215 l52 49 -23 52 c-12 28 -25 63 -29 78 -8 34 -91 102 -161
133 -77 34 -145 45 -285 45 -154 0 -212 -11 -304 -57 -67 -34 -72 -35 -124
-24 -146 29 -387 -11 -502 -84 -71 -45 -69 -52 -36 209 24 183 31 381 16 459
-7 40 -35 114 -71 188 -33 67 -56 126 -52 130 5 5 40 14 78 20 68 12 74 11
177 -20 78 -24 116 -30 142 -26 43 8 116 59 116 80 0 8 5 15 10 15 16 0 10
-42 -13 -90 -18 -37 -30 -47 -72 -63 -68 -25 -111 -23 -185 8 -67 28 -90 27
-90 -4 0 -14 14 -28 41 -43 23 -13 51 -29 63 -35 11 -7 50 -13 86 -13 61 -1
68 -3 108 -40 54 -49 51 -74 -11 -91 -137 -37 -208 -73 -231 -117 -17 -33 -36
-122 -36 -167 0 -74 74 -119 212 -129 68 -5 85 -11 131 -41 89 -59 162 -57
247 7 24 18 51 39 62 47 16 12 27 10 87 -18 122 -56 224 -38 269 49 41 81 24
170 -46 244 -38 39 -142 96 -177 96 -11 0 -27 5 -35 10 -12 7 -8 12 20 24 19
8 48 24 65 35 16 11 54 23 85 26 212 24 259 42 342 127 86 90 107 90 126 3 24
-107 36 -140 54 -143 29 -6 152 132 199 222 49 94 104 157 162 185 52 26 82
26 106 2z m-1654 -588 c-14 -99 -11 -96 -70 -90 l-53 5 5 -41 c4 -39 3 -41
-11 -23 -29 36 -20 78 27 122 45 44 86 74 100 74 5 0 6 -21 2 -47z m912 -550
c82 -56 113 -83 113 -97 0 -12 -120 -95 -210 -144 -128 -71 -323 -106 -585
-106 -156 0 -192 3 -270 23 -95 25 -283 95 -300 112 -14 15 81 99 151 133 82
40 181 58 304 54 84 -2 113 -7 146 -25 l41 -21 44 29 c116 79 148 87 346 88
l152 1 68 -47z m538 -503 c45 -126 47 -117 -47 -183 -113 -80 -308 -174 -308
-149 0 4 24 39 54 76 91 114 186 318 226 486 l14 55 17 -105 c10 -58 30 -139
44 -180z m152 -275 c139 -197 155 -223 148 -245 -10 -30 -214 -240 -302 -310
-73 -59 -273 -167 -368 -200 l-54 -18 2 299 2 300 40 10 c137 35 355 135 420
193 22 20 47 34 55 33 8 -1 33 -29 57 -62z m-1692 -664 c31 -78 54 -145 51
-148 -5 -6 -126 54 -187 93 -23 14 -39 32 -39 43 0 10 25 46 55 80 30 34 55
67 55 73 0 20 7 5 65 -141z"/>
<path d="M1760 3570 c-21 -21 -22 -29 -16 -90 8 -90 13 -100 46 -100 51 0 73
29 78 101 4 74 -7 96 -54 105 -25 5 -37 1 -54 -16z"/>
<path d="M2626 3512 c-21 -61 -14 -90 29 -132 25 -24 38 -30 55 -25 25 8 59
76 60 117 0 41 -38 78 -86 85 l-42 5 -16 -50z"/>
<path d="M2380 2173 c-36 -2 -161 -10 -279 -17 -236 -15 -259 -22 -222 -67 19
-24 22 -24 218 -27 109 -2 272 1 363 7 234 15 273 30 236 86 -16 25 -19 25
-134 23 -64 -1 -146 -3 -182 -5z"/>
<path d="M4111 4919 c-58 -114 -56 -133 20 -204 74 -68 96 -77 161 -69 40 6
54 13 82 46 41 47 96 148 96 176 0 25 -33 67 -68 85 -15 8 -40 22 -57 31 -21
11 -55 16 -112 16 l-82 0 -40 -81z m244 -17 c15 -14 21 -30 18 -40 -16 -42
-96 -182 -105 -182 -5 0 -34 24 -65 53 l-54 52 35 75 c20 41 36 82 36 91 0 8
3 19 6 22 9 9 99 -41 129 -71z"/>
<path d="M0 4784 l0 -47 94 7 93 6 9 -62 c8 -59 11 -63 37 -66 27 -3 27 -3 26
55 -1 81 -10 104 -48 130 -29 20 -47 23 -122 23 l-89 0 0 -46z"/>
<path d="M481 4756 c-27 -28 -41 -69 -41 -116 0 -36 4 -41 43 -65 47 -27 104
-33 140 -14 68 35 84 84 47 144 -28 45 -56 61 -117 67 -44 4 -55 2 -72 -16z
m114 -69 c17 -13 17 -15 -6 -30 -29 -21 -69 -22 -69 -3 0 13 36 46 50 46 4 0
14 -6 25 -13z"/>
<path d="M895 4770 c-3 -6 -3 -19 0 -30 5 -16 2 -20 -18 -20 -54 0 -59 -50 -9
-76 21 -10 21 -11 -13 -44 -19 -19 -35 -43 -35 -54 2 -58 74 -136 126 -136 37
0 37 -17 -1 -30 -51 -17 -95 -62 -95 -98 0 -76 48 -135 123 -153 52 -12 161
-7 230 12 46 12 106 63 123 106 19 45 6 74 -58 122 -54 40 -113 60 -179 61
l-36 0 0 68 c2 170 -46 282 -119 282 -18 0 -36 -5 -39 -10z m110 -219 c8 -14
-35 -41 -66 -41 -30 0 -44 21 -26 39 13 13 83 15 92 2z m214 -245 c28 -25 26
-40 -6 -55 -31 -14 -218 -27 -257 -17 -53 13 -25 44 73 82 52 20 164 14 190
-10z"/>
<path d="M1210 4676 c0 -34 -16 -41 -62 -25 -34 11 -41 11 -49 -2 -14 -23 -10
-136 7 -177 15 -35 16 -36 30 -18 8 11 14 28 14 39 0 27 18 57 35 57 9 0 16
-15 20 -37 12 -73 16 -84 28 -80 24 8 37 54 37 133 0 67 -4 86 -21 108 -26 33
-39 33 -39 2z"/>
<path d="M0 4522 c0 -43 3 -50 28 -62 l27 -13 -27 -11 c-26 -9 -28 -14 -28
-60 l0 -51 75 3 c46 2 81 -1 89 -7 8 -6 16 -30 20 -52 9 -59 23 -79 53 -79 26
0 26 0 20 63 -10 107 -41 157 -106 174 -67 17 -41 43 42 43 48 0 77 15 77 39
0 29 -20 39 -90 46 -36 3 -91 8 -122 11 l-58 5 0 -49z"/>
<path d="M380 4482 c0 -61 48 -82 190 -80 110 1 134 8 138 40 2 19 -3 30 -17
37 -22 12 -177 31 -258 31 -51 0 -53 -1 -53 -28z"/>
<path d="M386 4372 c-13 -22 -17 -91 -7 -130 16 -59 43 -74 149 -79 113 -6
144 5 140 49 -4 39 -21 45 -145 47 l-82 1 -3 58 c-3 50 -6 57 -25 60 -11 2
-24 -1 -27 -6z"/>
<path d="M4268 4255 c-28 -19 -48 -47 -77 -108 -49 -104 -64 -152 -56 -176 10
-34 164 -171 191 -171 39 0 29 27 -36 100 -38 43 -60 76 -60 91 0 29 69 158
91 172 12 8 31 -2 82 -39 80 -60 82 -70 27 -183 -44 -91 -48 -112 -24 -132 15
-12 21 -9 48 23 43 50 88 142 94 193 4 38 0 47 -32 83 -32 35 -185 163 -204
170 -4 1 -24 -9 -44 -23z"/>
<path d="M660 3869 c-60 -11 -90 -46 -90 -103 0 -84 75 -156 162 -156 61 0 81
10 118 62 54 74 33 137 -57 175 -68 29 -83 32 -133 22z m128 -79 c29 -18 32
-23 21 -36 -39 -47 -113 -57 -155 -21 -31 27 -27 42 20 63 44 19 76 17 114 -6z"/>
<path d="M0 3825 c0 -45 0 -45 33 -43 l32 3 -1 -112 c-2 -137 -7 -161 -39
-173 -23 -9 -25 -15 -25 -66 0 -55 1 -56 25 -50 50 13 74 26 85 46 12 22 29
209 30 318 0 57 -3 67 -29 93 -23 23 -39 29 -70 29 l-41 0 0 -45z"/>
<path d="M310 3798 c-18 -78 -26 -379 -11 -406 28 -53 52 -13 66 112 9 75 13
86 34 86 22 0 41 19 41 41 0 10 -15 30 -34 46 -30 25 -34 34 -38 91 -4 58 -15
81 -40 82 -3 0 -12 -24 -18 -52z"/>
<path d="M1049 3809 c-6 -12 -15 -77 -19 -146 -5 -69 -10 -126 -12 -129 -2 -2
-56 1 -119 7 -63 5 -172 9 -244 7 -130 -3 -130 -3 -130 -27 0 -33 42 -62 98
-68 l46 -5 11 -53 c21 -99 61 -111 75 -22 13 81 8 77 93 70 103 -8 122 -19 47
-28 -101 -11 -105 -12 -105 -44 0 -51 23 -63 114 -61 106 3 103 3 109 -21 7
-28 38 -21 54 12 13 27 33 268 33 401 0 106 -24 157 -51 107z"/>
<path d="M500 3291 c-20 -38 -3 -179 27 -212 21 -25 109 -37 321 -45 l192 -7
0 36 c0 54 -19 60 -225 67 -223 8 -232 12 -255 95 -24 89 -39 105 -60 66z"/>
<path d="M4304 3228 c-33 -52 -81 -153 -89 -190 -5 -21 0 -34 31 -67 46 -51
218 -181 239 -181 28 0 61 47 100 140 l38 91 -29 42 c-37 51 -145 143 -213
180 l-50 28 -27 -43z m154 -130 c72 -49 73 -55 27 -155 -29 -63 -31 -63 -119
17 -49 45 -54 54 -46 75 13 34 59 105 68 105 4 0 35 -19 70 -42z"/>
<path d="M115 3173 c-115 -5 -115 -5 -115 -64 l0 -51 92 7 c114 9 187 22 205
36 18 15 17 55 -2 63 -24 9 -105 13 -180 9z"/>
<path d="M4514 2581 c-47 -22 -68 -50 -126 -167 l-45 -89 22 -38 c43 -75 147
-160 211 -173 22 -4 34 0 51 18 32 35 89 146 107 211 16 57 16 59 -4 92 -21
33 -97 107 -150 145 -25 18 -27 18 -66 1z m130 -150 c17 -18 17 -24 6 -53 -27
-66 -90 -188 -99 -188 -5 0 -27 20 -50 45 -55 60 -54 87 5 192 l47 82 36 -28
c20 -16 44 -38 55 -50z"/>
<path d="M684 1820 c-159 -17 -154 -8 -154 -254 0 -216 7 -259 46 -306 24 -28
30 -30 97 -30 97 0 291 17 349 31 39 9 48 16 58 42 14 42 25 311 16 409 -11
115 -7 113 -188 114 -84 1 -185 -2 -224 -6z m315 -96 c9 -8 14 -300 7 -339 -7
-33 -8 -34 -69 -39 -34 -3 -119 -7 -188 -10 l-127 -4 -6 162 c-4 88 -9 178
-12 198 l-6 37 49 4 c60 6 345 -2 352 -9z"/>
<path d="M680 1678 c-40 -15 -51 -46 -24 -73 16 -15 32 -17 148 -11 179 9 186
11 186 46 0 16 -3 31 -7 33 -5 3 -66 8 -138 11 -93 4 -140 2 -165 -6z"/>
<path d="M701 1526 c-48 -27 -65 -90 -33 -119 24 -22 45 -21 67 2 17 20 18 20
44 1 25 -17 30 -17 104 -3 56 12 81 22 88 35 15 28 4 48 -25 48 -14 0 -46 7
-71 15 -48 17 -79 9 -100 -24 -8 -13 -11 -9 -15 19 -6 39 -23 46 -59 26z"/>
<path d="M4642 1737 c-14 -17 -76 -161 -97 -225 -15 -47 -15 -55 -2 -75 30
-46 212 -167 252 -167 25 0 64 42 90 97 37 77 33 163 -9 218 -49 64 -217 173
-234 152z m145 -165 l61 -45 -19 -45 c-31 -72 -62 -122 -74 -122 -14 0 -56 30
-102 73 l-32 30 42 83 c23 47 45 80 51 77 6 -4 39 -26 73 -51z"/>
<path d="M32 1687 c-30 -31 -32 -37 -32 -112 0 -43 3 -75 6 -72 4 3 15 -5 26
-18 27 -35 89 -35 130 0 35 29 49 30 111 9 51 -17 87 -7 87 25 0 17 -46 41
-153 76 -59 20 -72 16 -80 -24 -4 -17 -11 -31 -17 -31 -8 0 -9 24 -4 79 6 73
5 80 -14 90 -27 14 -23 16 -60 -22z"/>
<path d="M4618 1039 c-30 -12 -42 -33 -25 -47 7 -5 47 -17 89 -26 83 -17 120
-11 132 19 9 24 8 25 -19 25 -14 0 -43 9 -65 20 -43 22 -70 24 -112 9z"/>
<path d="M4980 989 c0 -19 -11 -45 -30 -69 -16 -21 -30 -42 -30 -48 0 -19 30
-34 55 -28 24 6 25 9 25 91 0 50 -4 85 -10 85 -5 0 -10 -14 -10 -31z"/>
<path d="M4005 800 c-10 -16 5 -51 38 -94 l31 -39 -38 6 -38 6 6 -39 c6 -39 6
-40 -24 -40 -29 0 -30 -2 -30 -46 0 -51 -14 -84 -35 -84 -7 0 -29 -28 -47 -62
-22 -43 -65 -95 -135 -164 l-103 -101 0 -72 0 -71 88 0 c73 0 92 3 105 18 40
44 10 72 -78 72 l-57 0 61 46 c117 88 380 407 402 487 15 55 6 78 -50 136 -47
48 -82 63 -96 41z"/>
<path d="M4922 763 c4 -36 33 -39 33 -3 0 16 -6 26 -18 28 -15 3 -18 -2 -15
-25z"/>
<path d="M4705 578 c-3 -8 1 -58 9 -113 18 -119 57 -205 99 -219 42 -15 54 3
39 57 -11 37 -24 88 -53 207 -11 47 -28 67 -61 76 -19 4 -29 2 -33 -8z"/>
<path d="M1322 563 c-21 -8 -54 -83 -48 -109 5 -19 2 -24 -13 -24 -11 0 -23
-5 -26 -11 -18 -29 138 -202 304 -335 l103 -84 91 0 92 0 -75 42 c-47 28 -79
53 -87 71 -7 15 -19 39 -26 54 -8 18 -28 33 -57 44 -37 14 -46 22 -53 50 -13
52 -25 61 -69 54 -33 -6 -43 -2 -87 32 -63 48 -69 62 -36 86 33 24 55 67 55
107 0 26 -3 30 -27 29 -16 0 -34 -3 -41 -6z"/>
<path d="M4333 473 c6 -100 37 -230 63 -270 17 -26 32 -29 59 -9 18 13 17 18
-14 167 -33 160 -52 202 -91 207 l-23 4 6 -99z"/>
<path d="M4201 477 c-13 -35 -36 -251 -28 -270 9 -23 52 -22 76 2 15 15 21 40
26 114 8 108 1 153 -25 167 -28 15 -40 12 -49 -13z"/>
<path d="M4933 463 c4 -20 19 -61 34 -91 l28 -56 3 79 c3 85 -7 105 -51 105
-17 0 -19 -5 -14 -37z"/>
<path d="M1010 466 c0 -25 -25 -174 -36 -221 -13 -51 -43 -214 -44 -237 0 -5
22 -8 49 -8 l48 0 7 67 c4 37 16 114 27 172 29 148 17 231 -32 231 -11 0 -19
-2 -19 -4z"/>
<path d="M1388 419 c-22 -12 -24 -58 -2 -66 16 -6 64 33 64 53 0 6 -7 15 -16
18 -21 8 -26 7 -46 -5z"/>
<path d="M552 182 c-11 -11 -25 -46 -31 -79 -7 -32 -14 -68 -17 -80 -4 -21 -1
-23 36 -23 35 0 42 4 52 28 6 15 11 58 12 97 1 58 -2 70 -16 73 -9 2 -26 -6
-36 -16z"/>
<path d="M4725 166 c-22 -22 -35 -58 -49 -133 l-5 -33 112 1 112 1 -55 17
c-46 14 -55 21 -58 42 -2 14 6 36 16 49 18 22 22 23 51 11 17 -8 31 -17 31
-21 0 -5 12 -22 26 -40 21 -24 29 -28 40 -19 25 21 17 65 -17 93 -71 60 -162
74 -204 32z"/>
<path d="M1120 145 c-7 -8 -15 -44 -18 -80 l-5 -65 47 0 46 0 0 44 c0 86 -38
140 -70 101z"/>
<path d="M4196 148 c-40 -31 10 -87 86 -97 35 -5 44 -10 46 -28 3 -21 9 -23
57 -23 l54 0 16 52 c8 28 15 57 15 64 0 24 -41 35 -148 41 -83 4 -111 2 -126
-9z"/>
<path d="M4544 147 c-3 -9 -2 -45 3 -79 l8 -63 39 -3 c29 -3 37 0 34 10 -3 7
-13 36 -22 64 -20 60 -52 97 -62 71z"/>
<path d="M4055 120 c-4 -6 -1 -35 5 -65 11 -54 12 -55 47 -55 l36 0 -7 42
c-10 61 -61 110 -81 78z"/>
<path d="M318 3 c7 -3 16 -2 19 1 4 3 -2 6 -13 5 -11 0 -14 -3 -6 -6z"/>
<path d="M3523 3 c9 -2 25 -2 35 0 9 3 1 5 -18 5 -19 0 -27 -2 -17 -5z"/>
</g>
</svg>
